<svg xmlns="http://www.w3.org/2000/svg" width="26" height="40" fill="none"><path d="M24.5 28.5L17 38V21.293a.54.54 0 0 1 .493-.536c1.868-.159 3.519-1.279 4.357-2.956l.53-1.059c.063-.126-.003-.278-.138-.319l-.763-.229c-2.556-.767-5.308-.529-7.694.664-.172.086-.276.268-.262.46L14 24l-1 1.5-1-1.5.473-6.627c.016-.224-.11-.434-.315-.525l-.046-.02c-2.646-1.176-5.635-1.32-8.382-.405-.122.041-.179.18-.122.294L4.15 17.8c.838 1.677 2.489 2.797 4.357 2.956a.54.54 0 0 1 .493.536V38l-8-9.5L2.5 22l-.715-1.431a2 2 0 0 1-.188-1.199l.864-5.618A15 15 0 0 1 9.277 3.352l3.203-2.023a1 1 0 0 1 1.048-.012l2.828 1.697a15 15 0 0 1 7.238 11.712l.363 4.722a2 2 0 0 1-.205 1.048L23 22l1.5 6.5z" fill="#10161a" stroke="#10161a"/><path d="M17.5 36.5l6-7.5-5.5 6V24l-.5 12.5zm-9 0l-6-7.5L8 35V24l.5 12.5z" fill="#f3a623"/></svg>
