<svg width="54" height="54" fill="none" xmlns="http://www.w3.org/2000/svg"><path fill-rule="evenodd" clip-rule="evenodd" d="M45.026 17.712a5.937 5.937 0 005.93 5.935h2.629l-1.62 1.62a7.021 7.021 0 00-7.015 7.014v9.196l-1.62-1.62v-1.404c0-4.136-3.37-7.506-7.506-7.506h-.81v-.81a2.362 2.362 0 00-2.31-2.354H31.26l-4.26 21.011-4.256-21.011h-1.447a2.36 2.36 0 00-2.305 2.354v.81h-.81c-4.142 0-7.506 3.37-7.506 7.506v1.404l-1.62 1.62v-9.201a7.021 7.021 0 00-7.015-7.015l-1.62-1.62h2.613a5.941 5.941 0 005.935-5.934c0-.88-.427-1.664-1.166-2.144-.74-.48-1.631-.551-2.436-.195l-1.14.508v-1.247c0-5.2 4.234-9.434 9.435-9.434h9.158l-1.69 1.43v.001c-.058.05-4.6 4.023-4.6 10.951 0 2.71.966 3.629 2.046 3.937l2.888.002.011-.008c1.275-.356 1.955-1.301 2.03-2.813l-4.211-4.92h2.532l-2.856-2.85 9.644 1.338 6.14 6.15.799.8h-5.011c.194 1.21.853 1.982 1.976 2.295l.013.016h2.887c.006 0 .011-.005.017-.005 1.069-.313 2.035-1.237 2.035-3.937 0-6.976-4.557-10.913-4.606-10.95L31.18 5.2h9.153c5.2 0 9.434 4.234 9.434 9.434v1.247l-1.14-.507a2.526 2.526 0 00-2.435.194 2.507 2.507 0 00-1.166 2.144zm-35.543-2.83a4.146 4.146 0 011.107 2.83 7.56 7.56 0 01-4.536 6.928c.292.151.572.33.848.513l1.058-.68a8.387 8.387 0 003.44-6.761 4.967 4.967 0 00-2.273-4.185 5.007 5.007 0 00-1.901-.74l-.313-.048.097-.303a7.03 7.03 0 012.874-3.7c.26-.176.372-.252.95-.506.869-.384 1.83-.6 2.829-.6h4.439l.08-.113c.036-.047.07-.093.106-.138.045-.06.09-.117.132-.175.063-.083.126-.162.188-.24l.114-.144h-5.06c-3.947 0-7.214 2.938-7.738 6.74a4.155 4.155 0 012.76.647 4.2 4.2 0 01.8.675zm33.118 2.83c0 2.668 1.29 5.2 3.45 6.766l1.043.68c.276-.188.556-.367.853-.518a7.579 7.579 0 01-1.41-.81 7.537 7.537 0 01-3.126-6.118c0-.443.07-.88.2-1.29.054-.163.119-.325.19-.476.107-.232.237-.453.388-.664.297-.421.68-.788 1.123-1.075a4.17 4.17 0 012.765-.648 7.787 7.787 0 00-2.587-4.795A7.783 7.783 0 0040.34 6.82h-5.06l.114.144c.062.078.125.157.188.24l.133.175.105.138.08.113h4.44c.999 0 1.955.216 2.824.6a9.63 9.63 0 011.07.588 7.002 7.002 0 012.753 3.618l.103.303-.313.048a4.973 4.973 0 00-1.901.74 4.967 4.967 0 00-2.274 4.185z" fill="#10161A"/></svg>